<svg xmlns="http://www.w3.org/2000/svg" viewBox="0 0 1600 900" role="img" aria-labelledby="title desc">
  <title id="title">Folio 2026 homepage</title>
  <desc id="desc">A graphic reconstruction of the JozeDzn portfolio homepage.</desc>
  <defs>
    <pattern id="dots" width="9" height="9" patternUnits="userSpaceOnUse">
      <circle cx="2" cy="2" r="1.6" fill="#f0fde6" opacity=".55"/>
    </pattern>
    <linearGradient id="line" x1="0" x2="1">
      <stop stop-color="#b3f381"/><stop offset="1" stop-color="#e36085"/>
    </linearGradient>
  </defs>
  <rect width="1600" height="900" fill="#0c0c0c"/>
  <rect x="54" y="38" width="1492" height="824" rx="28" fill="#101010" stroke="#303030" stroke-width="2"/>
  <circle cx="91" cy="75" r="7" fill="#e36085"/><circle cx="116" cy="75" r="7" fill="#b3f381"/><circle cx="141" cy="75" r="7" fill="#f0fde6" opacity=".35"/>
  <rect x="182" y="61" width="1236" height="29" rx="15" fill="#171717" stroke="#292929"/>
  <text x="800" y="80" text-anchor="middle" fill="#f0fde6" opacity=".38" font-family="Arial, sans-serif" font-size="13" letter-spacing="3">JOZEDZN.COM / 2026</text>
  <rect x="82" y="112" width="1436" height="1" fill="url(#line)" opacity=".55"/>
  <g transform="translate(118 148)">
    <rect width="1364" height="640" rx="44" fill="#0c0c0c" stroke="#333"/>
    <text x="46" y="54" fill="#f0fde6" font-family="Arial, sans-serif" font-weight="700" font-size="20">◉ JOZEDZN</text>
    <text x="670" y="53" fill="#f0fde6" opacity=".72" font-family="Arial, sans-serif" font-size="16">WORK　 ABOUT　 CONTACT</text>
    <rect x="1215" y="27" width="100" height="42" rx="21" fill="none" stroke="#555"/>
    <text x="1265" y="53" text-anchor="middle" fill="#f0fde6" font-family="Arial, sans-serif" font-size="14">ES / EN</text>
    <circle cx="682" cy="330" r="215" fill="#151515" stroke="#f0fde6" stroke-width="5"/>
    <circle cx="682" cy="330" r="183" fill="url(#dots)"/>
    <circle cx="682" cy="330" r="58" fill="#0c0c0c"/>
    <circle cx="682" cy="330" r="12" fill="#b3f381"/>
    <text x="682" y="392" text-anchor="middle" fill="#b3f381" font-family="Arial Black, Arial, sans-serif" font-weight="900" font-size="224" letter-spacing="-17">JOZEDZN</text>
    <text x="46" y="592" fill="#e36085" font-family="Arial, sans-serif" font-size="18" letter-spacing="3">BASED IN MEXICO</text>
    <text x="1318" y="592" text-anchor="end" fill="#e36085" font-family="Arial, sans-serif" font-size="18" letter-spacing="3">3D · MOTION · WEB · GAMES</text>
  </g>
  <text x="82" y="837" fill="#b3f381" font-family="Arial, sans-serif" font-size="13" letter-spacing="4">FOLIO 2026 — BUILT, BROKEN, TUNED, REPEATED.</text>
</svg>
