<svg preserveAspectRatio="none" width="100%" height="100%" overflow="visible" style="display: block;" viewBox="0 0 40.502 35" fill="none" xmlns="http://www.w3.org/2000/svg">
<g id="Logo-Navbar">
<g id="Vector">
<path d="M25.54 15.2798C25.5518 15.2898 25.5664 15.306 25.5839 15.3276C25.6015 15.3494 25.6206 15.3754 25.6396 15.4048L25.6962 15.5005C25.7741 15.6515 25.999 15.9841 26.1991 16.2466L26.5253 16.687L26.3495 16.8452C26.2895 16.8974 26.2413 16.9429 26.2079 16.9839C26.1749 17.0245 26.1512 17.0681 26.1503 17.1167C26.1495 17.1665 26.1729 17.209 26.206 17.2466C26.2388 17.2838 26.2866 17.3222 26.3447 17.3657V17.3667C26.372 17.3866 26.4 17.407 26.4306 17.4194C26.4642 17.433 26.499 17.4365 26.5409 17.4312C26.581 17.426 26.6303 17.4127 26.6943 17.3921C26.7589 17.3713 26.8424 17.3419 26.9521 17.3032V17.3022C27.433 17.1301 28.1512 16.9622 28.8925 16.8423C29.2744 16.7808 29.6485 16.7632 30.6855 16.7632C31.8691 16.7632 32.0517 16.7717 32.5634 16.8647C33.8121 17.0908 34.6803 17.4385 35.2939 18.0122C35.9069 18.5855 36.2732 19.3908 36.5038 20.5464C36.7689 21.8738 36.7297 23.1783 36.3886 24.4829C36.0131 25.933 35.1806 27.3845 34.0019 28.6655C33.6668 29.0276 32.7659 29.8125 32.3193 30.1353C30.6922 31.2965 29.1068 31.9841 26.7353 32.5435C26.4903 32.6014 26.2646 32.6564 26.0995 32.6978C26.0173 32.7183 25.9499 32.7358 25.9023 32.7485C25.8786 32.7549 25.8593 32.7601 25.8456 32.7642C25.8391 32.7661 25.8328 32.7674 25.828 32.769C25.8257 32.7699 25.8221 32.7717 25.8193 32.773C25.8179 32.7736 25.8155 32.7747 25.8134 32.7759C25.8116 32.7769 25.8065 32.7791 25.8017 32.7837C25.7922 32.7926 25.782 32.8067 25.7782 32.8257C25.7742 32.8461 25.7792 32.8646 25.788 32.8784C25.8027 32.9016 25.8287 32.9155 25.8486 32.9243C25.8926 32.9438 25.9623 32.9604 26.0497 32.9761C26.2269 33.0078 26.4962 33.0359 26.8329 33.0562C27.6338 33.0995 28.6493 32.9812 29.4765 32.7524L29.8183 32.648C29.8703 32.6298 29.9213 32.6131 29.9677 32.5981C29.9373 32.6237 29.9049 32.653 29.8691 32.6821C28.3992 33.8247 26.4284 34.644 24.5595 34.8745C24.0332 34.9407 22.8089 34.9678 22.2792 34.9233L22.2363 34.9204L22.2353 34.9224C21.278 34.8441 20.2714 34.6208 19.3993 34.2983C18.8107 34.0811 17.8129 33.5891 17.2958 33.2622L17.2948 33.2612C17.0584 33.1131 16.6814 32.8476 16.3437 32.5972C16.1749 32.472 16.0164 32.3506 15.8905 32.2505C15.8269 32.1998 15.7723 32.1554 15.7294 32.1187L15.6376 32.0337L15.6318 32.0269L15.6562 32.0308C16.0618 32.0869 16.8379 32.1375 17.5107 32.1636C17.8473 32.1766 18.1595 32.1833 18.3876 32.1821C18.5012 32.1815 18.595 32.1785 18.6611 32.1733C18.6937 32.1708 18.7224 32.1681 18.7431 32.1636C18.7529 32.1614 18.765 32.158 18.7753 32.1528C18.7805 32.1502 18.7879 32.1455 18.7948 32.1382C18.8025 32.1301 18.8114 32.1161 18.8114 32.0972C18.8114 32.075 18.8075 32.0499 18.7939 32.0288C18.7787 32.0055 18.7524 31.9888 18.7206 31.9888L18.7323 31.9897C18.7313 31.9894 18.7289 31.9892 18.7255 31.9878C18.7181 31.9847 18.7073 31.9798 18.6933 31.9731C18.6653 31.9599 18.626 31.9398 18.579 31.9155C18.4852 31.867 18.36 31.8001 18.2275 31.7251V31.7241C16.6142 30.8282 15.0219 29.4499 13.9677 28.0366L13.6738 27.644L13.8818 27.519C14.0215 27.4336 14.2066 27.2969 14.2909 27.2183L14.2919 27.2173C14.3919 27.1196 14.5038 26.9463 14.5976 26.7593C14.6682 26.6184 14.7309 26.4661 14.7724 26.3267L14.8056 26.1929C14.8491 25.9854 14.8583 25.6906 14.8388 25.3892C14.8192 25.0871 14.7713 24.7733 14.6982 24.5278C14.4825 23.7935 13.9302 22.782 13.1943 21.7603C13.1292 21.6704 13.0987 21.6204 13.0878 21.5874C13.083 21.5728 13.083 21.5643 13.0839 21.5591C13.0849 21.5536 13.0884 21.5464 13.0966 21.5347L13.0976 21.5327C13.1249 21.4906 13.1923 21.3727 13.245 21.2749L13.246 21.2759C13.2727 21.2269 13.2984 21.1801 13.3183 21.145C13.3217 21.139 13.3241 21.1327 13.3271 21.1274C13.3366 21.1343 13.3479 21.1424 13.3603 21.1519C13.4086 21.1887 13.4746 21.2417 13.5448 21.3032V21.3042C14.4988 22.1283 15.6778 22.7287 16.8447 22.98C17.1754 23.0522 17.6654 23.0884 18.1532 23.0884C18.641 23.0884 19.1323 23.0522 19.4667 22.98C21.8045 22.4776 23.706 20.7957 24.496 18.5298L24.497 18.5288C24.6897 17.9682 24.8463 17.2663 24.9755 16.3608C25.0065 16.1437 25.0421 15.9343 25.0741 15.773C25.0901 15.6923 25.1049 15.6237 25.1181 15.5728C25.1247 15.5473 25.1305 15.5265 25.1357 15.5112C25.1382 15.5037 25.1407 15.4979 25.1425 15.4937C25.1443 15.4894 25.1447 15.4874 25.1445 15.4878L25.2109 15.4214C25.2429 15.3963 25.2828 15.3709 25.3241 15.3481C25.3653 15.3255 25.4081 15.3062 25.4462 15.2925C25.4819 15.2797 25.5106 15.274 25.5302 15.273C25.5324 15.2744 25.5361 15.2765 25.54 15.2798ZM31.2177 17.6196C30.7492 17.604 30.2595 17.6212 29.8837 17.6753H29.8827C29.2741 17.7643 28.6512 17.9213 28.1659 18.1099C27.8175 18.2455 27.4549 18.4633 27.1405 18.7124C26.905 18.8991 26.6942 19.1048 26.537 19.3091L26.3993 19.5122C26.1303 19.9695 26.0657 20.5897 26.2157 21.1177L26.2929 21.3374C26.5672 21.9834 27.1117 22.602 27.7753 23.0884C28.4391 23.5748 29.227 23.9324 29.9931 24.0542L30.2802 24.0991L30.2587 24.3647V24.3657C30.2153 24.9353 29.8958 25.5237 29.2363 26.2192C27.9691 27.548 26.1611 27.9926 24.3827 27.4077C22.9817 26.9489 21.8025 25.9931 20.7255 24.4331V24.4321C20.6814 24.3691 20.6307 24.3118 20.582 24.2671C20.5349 24.224 20.4832 24.1866 20.4364 24.1743H20.4355C20.2341 24.125 19.9697 24.1975 19.8144 24.354V24.355C19.7591 24.4124 19.7182 24.4594 19.6982 24.5151C19.688 24.5435 19.6839 24.5726 19.6835 24.604L19.6923 24.7075C19.7119 24.8572 19.8115 25.0676 19.9599 25.3062C20.1099 25.5474 20.3143 25.825 20.5497 26.1118C21.0205 26.6854 21.6198 27.2992 22.1689 27.7339C23.1845 28.5396 24.4628 29.137 25.4941 29.2896C25.723 29.3235 26.0771 29.3369 26.4218 29.3325C26.766 29.3281 27.1068 29.3057 27.3095 29.2671V29.2681L27.3173 29.2651L27.3163 29.2642C27.7402 29.1872 28.3445 28.982 28.7304 28.7847L28.7294 28.7837C29.6291 28.3337 30.4532 27.4939 30.8632 26.6021C30.894 26.5406 30.9243 26.4842 30.9491 26.4439C30.958 26.4294 30.9661 26.4175 30.9726 26.4087C30.9859 26.415 31.0037 26.424 31.0243 26.4351C31.0698 26.4594 31.129 26.4927 31.1904 26.5298C31.8557 26.9402 32.5194 26.9855 33.2128 26.6753C34.0314 26.3068 34.8202 25.3214 35.1396 24.2915C35.1629 24.2164 35.181 24.1582 35.1933 24.1118C35.2054 24.0659 35.2127 24.0279 35.2138 23.9946C35.2161 23.9202 35.1845 23.876 35.1445 23.8208L35.1435 23.8198C35.0902 23.7493 35.0138 23.6926 34.9364 23.6587C34.8609 23.6257 34.773 23.6091 34.7021 23.6362V23.6372C34.6851 23.6436 34.6718 23.6557 34.664 23.6636C34.6539 23.6738 34.6433 23.6865 34.6327 23.7007C34.6115 23.7291 34.587 23.7674 34.5605 23.812C34.5071 23.9018 34.4434 24.022 34.3827 24.1499C34.0739 24.8017 33.6395 25.3314 33.1845 25.6274L32.9882 25.7397C32.5126 25.9775 31.989 25.9238 31.7167 25.6314V25.6304L31.6327 25.5239C31.5523 25.4029 31.4821 25.2393 31.4286 25.0474C31.3577 24.7928 31.3173 24.4928 31.3173 24.186V23.9077L31.6171 23.7534C31.7996 23.6571 32.136 23.4239 32.3691 23.2358H32.37C33.0819 22.6439 33.515 22.1134 33.8534 21.4067C34.3545 20.364 34.439 19.3696 34.0497 18.7583H34.0488C33.8061 18.3742 33.3152 18.0456 32.706 17.8403L32.4374 17.7603L32.1855 17.7075C31.9102 17.6609 31.5685 17.6314 31.2177 17.6196Z" fill="var(--fill-0, white)"/>
<path d="M25.54 15.2798C25.5518 15.2898 25.5664 15.306 25.5839 15.3276C25.6015 15.3494 25.6206 15.3754 25.6396 15.4048L25.6962 15.5005C25.7741 15.6515 25.999 15.9841 26.1991 16.2466L26.5253 16.687L26.3495 16.8452C26.2895 16.8974 26.2413 16.9429 26.2079 16.9839C26.1749 17.0245 26.1512 17.0681 26.1503 17.1167C26.1495 17.1665 26.1729 17.209 26.206 17.2466C26.2388 17.2838 26.2866 17.3222 26.3447 17.3657V17.3667C26.372 17.3866 26.4 17.407 26.4306 17.4194C26.4642 17.433 26.499 17.4365 26.5409 17.4312C26.581 17.426 26.6303 17.4127 26.6943 17.3921C26.7589 17.3713 26.8424 17.3419 26.9521 17.3032V17.3022C27.433 17.1301 28.1512 16.9622 28.8925 16.8423C29.2744 16.7808 29.6485 16.7632 30.6855 16.7632C31.8691 16.7632 32.0517 16.7717 32.5634 16.8647C33.8121 17.0908 34.6803 17.4385 35.2939 18.0122C35.9069 18.5855 36.2732 19.3908 36.5038 20.5464C36.7689 21.8738 36.7297 23.1783 36.3886 24.4829C36.0131 25.933 35.1806 27.3845 34.0019 28.6655C33.6668 29.0276 32.7659 29.8125 32.3193 30.1353C30.6922 31.2965 29.1068 31.9841 26.7353 32.5435C26.4903 32.6014 26.2646 32.6564 26.0995 32.6978C26.0173 32.7183 25.9499 32.7358 25.9023 32.7485C25.8786 32.7549 25.8593 32.7601 25.8456 32.7642C25.8391 32.7661 25.8328 32.7674 25.828 32.769C25.8257 32.7699 25.8221 32.7717 25.8193 32.773C25.8179 32.7736 25.8155 32.7747 25.8134 32.7759C25.8116 32.7769 25.8065 32.7791 25.8017 32.7837C25.7922 32.7926 25.782 32.8067 25.7782 32.8257C25.7742 32.8461 25.7792 32.8646 25.788 32.8784C25.8027 32.9016 25.8287 32.9155 25.8486 32.9243C25.8926 32.9438 25.9623 32.9604 26.0497 32.9761C26.2269 33.0078 26.4962 33.0359 26.8329 33.0562C27.6338 33.0995 28.6493 32.9812 29.4765 32.7524L29.8183 32.648C29.8703 32.6298 29.9213 32.6131 29.9677 32.5981C29.9373 32.6237 29.9049 32.653 29.8691 32.6821C28.3992 33.8247 26.4284 34.644 24.5595 34.8745C24.0332 34.9407 22.8089 34.9678 22.2792 34.9233L22.2363 34.9204L22.2353 34.9224C21.278 34.8441 20.2714 34.6208 19.3993 34.2983C18.8107 34.0811 17.8129 33.5891 17.2958 33.2622L17.2948 33.2612C17.0584 33.1131 16.6814 32.8476 16.3437 32.5972C16.1749 32.472 16.0164 32.3506 15.8905 32.2505C15.8269 32.1998 15.7723 32.1554 15.7294 32.1187L15.6376 32.0337L15.6318 32.0269L15.6562 32.0308C16.0618 32.0869 16.8379 32.1375 17.5107 32.1636C17.8473 32.1766 18.1595 32.1833 18.3876 32.1821C18.5012 32.1815 18.595 32.1785 18.6611 32.1733C18.6937 32.1708 18.7224 32.1681 18.7431 32.1636C18.7529 32.1614 18.765 32.158 18.7753 32.1528C18.7805 32.1502 18.7879 32.1455 18.7948 32.1382C18.8025 32.1301 18.8114 32.1161 18.8114 32.0972C18.8114 32.075 18.8075 32.0499 18.7939 32.0288C18.7787 32.0055 18.7524 31.9888 18.7206 31.9888L18.7323 31.9897C18.7313 31.9894 18.7289 31.9892 18.7255 31.9878C18.7181 31.9847 18.7073 31.9798 18.6933 31.9731C18.6653 31.9599 18.626 31.9398 18.579 31.9155C18.4852 31.867 18.36 31.8001 18.2275 31.7251V31.7241C16.6142 30.8282 15.0219 29.4499 13.9677 28.0366L13.6738 27.644L13.8818 27.519C14.0215 27.4336 14.2066 27.2969 14.2909 27.2183L14.2919 27.2173C14.3919 27.1196 14.5038 26.9463 14.5976 26.7593C14.6682 26.6184 14.7309 26.4661 14.7724 26.3267L14.8056 26.1929C14.8491 25.9854 14.8583 25.6906 14.8388 25.3892C14.8192 25.0871 14.7713 24.7733 14.6982 24.5278C14.4825 23.7935 13.9302 22.782 13.1943 21.7603C13.1292 21.6704 13.0987 21.6204 13.0878 21.5874C13.083 21.5728 13.083 21.5643 13.0839 21.5591C13.0849 21.5536 13.0884 21.5464 13.0966 21.5347L13.0976 21.5327C13.1249 21.4906 13.1923 21.3727 13.245 21.2749L13.246 21.2759C13.2727 21.2269 13.2984 21.1801 13.3183 21.145C13.3217 21.139 13.3241 21.1327 13.3271 21.1274C13.3366 21.1343 13.3479 21.1424 13.3603 21.1519C13.4086 21.1887 13.4746 21.2417 13.5448 21.3032V21.3042C14.4988 22.1283 15.6778 22.7287 16.8447 22.98C17.1754 23.0522 17.6654 23.0884 18.1532 23.0884C18.641 23.0884 19.1323 23.0522 19.4667 22.98C21.8045 22.4776 23.706 20.7957 24.496 18.5298L24.497 18.5288C24.6897 17.9682 24.8463 17.2663 24.9755 16.3608C25.0065 16.1437 25.0421 15.9343 25.0741 15.773C25.0901 15.6923 25.1049 15.6237 25.1181 15.5728C25.1247 15.5473 25.1305 15.5265 25.1357 15.5112C25.1382 15.5037 25.1407 15.4979 25.1425 15.4937C25.1443 15.4894 25.1447 15.4874 25.1445 15.4878L25.2109 15.4214C25.2429 15.3963 25.2828 15.3709 25.3241 15.3481C25.3653 15.3255 25.4081 15.3062 25.4462 15.2925C25.4819 15.2797 25.5106 15.274 25.5302 15.273C25.5324 15.2744 25.5361 15.2765 25.54 15.2798ZM31.2177 17.6196C30.7492 17.604 30.2595 17.6212 29.8837 17.6753H29.8827C29.2741 17.7643 28.6512 17.9213 28.1659 18.1099C27.8175 18.2455 27.4549 18.4633 27.1405 18.7124C26.905 18.8991 26.6942 19.1048 26.537 19.3091L26.3993 19.5122C26.1303 19.9695 26.0657 20.5897 26.2157 21.1177L26.2929 21.3374C26.5672 21.9834 27.1117 22.602 27.7753 23.0884C28.4391 23.5748 29.227 23.9324 29.9931 24.0542L30.2802 24.0991L30.2587 24.3647V24.3657C30.2153 24.9353 29.8958 25.5237 29.2363 26.2192C27.9691 27.548 26.1611 27.9926 24.3827 27.4077C22.9817 26.9489 21.8025 25.9931 20.7255 24.4331V24.4321C20.6814 24.3691 20.6307 24.3118 20.582 24.2671C20.5349 24.224 20.4832 24.1866 20.4364 24.1743H20.4355C20.2341 24.125 19.9697 24.1975 19.8144 24.354V24.355C19.7591 24.4124 19.7182 24.4594 19.6982 24.5151C19.688 24.5435 19.6839 24.5726 19.6835 24.604L19.6923 24.7075C19.7119 24.8572 19.8115 25.0676 19.9599 25.3062C20.1099 25.5474 20.3143 25.825 20.5497 26.1118C21.0205 26.6854 21.6198 27.2992 22.1689 27.7339C23.1845 28.5396 24.4628 29.137 25.4941 29.2896C25.723 29.3235 26.0771 29.3369 26.4218 29.3325C26.766 29.3281 27.1068 29.3057 27.3095 29.2671V29.2681L27.3173 29.2651L27.3163 29.2642C27.7402 29.1872 28.3445 28.982 28.7304 28.7847L28.7294 28.7837C29.6291 28.3337 30.4532 27.4939 30.8632 26.6021C30.894 26.5406 30.9243 26.4842 30.9491 26.4439C30.958 26.4294 30.9661 26.4175 30.9726 26.4087C30.9859 26.415 31.0037 26.424 31.0243 26.4351C31.0698 26.4594 31.129 26.4927 31.1904 26.5298C31.8557 26.9402 32.5194 26.9855 33.2128 26.6753C34.0314 26.3068 34.8202 25.3214 35.1396 24.2915C35.1629 24.2164 35.181 24.1582 35.1933 24.1118C35.2054 24.0659 35.2127 24.0279 35.2138 23.9946C35.2161 23.9202 35.1845 23.876 35.1445 23.8208L35.1435 23.8198C35.0902 23.7493 35.0138 23.6926 34.9364 23.6587C34.8609 23.6257 34.773 23.6091 34.7021 23.6362V23.6372C34.6851 23.6436 34.6718 23.6557 34.664 23.6636C34.6539 23.6738 34.6433 23.6865 34.6327 23.7007C34.6115 23.7291 34.587 23.7674 34.5605 23.812C34.5071 23.9018 34.4434 24.022 34.3827 24.1499C34.0739 24.8017 33.6395 25.3314 33.1845 25.6274L32.9882 25.7397C32.5126 25.9775 31.989 25.9238 31.7167 25.6314V25.6304L31.6327 25.5239C31.5523 25.4029 31.4821 25.2393 31.4286 25.0474C31.3577 24.7928 31.3173 24.4928 31.3173 24.186V23.9077L31.6171 23.7534C31.7996 23.6571 32.136 23.4239 32.3691 23.2358H32.37C33.0819 22.6439 33.515 22.1134 33.8534 21.4067C34.3545 20.364 34.439 19.3696 34.0497 18.7583H34.0488C33.8061 18.3742 33.3152 18.0456 32.706 17.8403L32.4374 17.7603L32.1855 17.7075C31.9102 17.6609 31.5685 17.6314 31.2177 17.6196Z" stroke="var(--stroke-0, #F0FDE6)" style="mix-blend-mode:soft-light" stroke-width="0.109296"/>
</g>
<g id="Vector_2">
<path d="M23.0342 0.0546875C23.706 0.0547567 24.2775 0.219304 24.7754 0.552734L24.9844 0.706055C25.1425 0.833858 25.3379 1.0399 25.5186 1.26367C25.6992 1.48742 25.8626 1.7253 25.958 1.91602V1.91699C26.0213 2.04137 26.0663 2.12197 26.1074 2.16699C26.1293 2.1909 26.1545 2.21046 26.1855 2.21777C26.2149 2.22456 26.2419 2.21776 26.2656 2.20996L26.2666 2.21094C26.8152 2.05123 27.0509 2.01367 27.4629 2.01367C27.7641 2.01369 27.9697 2.02704 28.165 2.07129C28.3603 2.11555 28.5482 2.19104 28.8135 2.31934C29.0065 2.41259 29.1267 2.47612 29.2344 2.55371C29.342 2.63123 29.4395 2.72397 29.5859 2.87695C30.1766 3.49771 30.4231 4.21661 30.3184 5.00879C30.3054 5.11001 30.289 5.21589 30.2725 5.30371C30.2554 5.39407 30.2392 5.45901 30.2285 5.4834L30.2275 5.4873C30.2161 5.51996 30.2059 5.55357 30.2002 5.58105C30.1974 5.59449 30.1958 5.60868 30.1953 5.62109C30.1951 5.62717 30.1947 5.63537 30.1963 5.64355C30.1976 5.65027 30.2018 5.66589 30.2158 5.67871V5.67969L30.2227 5.68359C30.2314 5.68944 30.2418 5.69295 30.2461 5.69434C30.2527 5.69644 30.2609 5.69897 30.2695 5.70117C30.2868 5.70557 30.3096 5.71045 30.3359 5.71582C30.3892 5.72667 30.4596 5.73895 30.5342 5.75C31.4473 5.8989 32.3072 6.3873 32.8545 7.0625C33.416 7.75596 33.7791 8.63463 33.8398 9.41211L33.8477 9.56641L33.8545 9.89648L33.5 9.96484H33.499C33.281 10.0095 32.4414 10.1644 31.6309 10.3164C30.8254 10.4672 29.2809 10.7565 28.2031 10.9609C27.1266 11.1653 24.6337 11.6374 22.6621 12.0068C20.6904 12.3763 18.6198 12.7679 18.0547 12.875L15.585 13.3428C14.7886 13.4935 13.6223 13.7122 12.9902 13.8369C12.6768 13.897 12.3761 13.9517 12.1455 13.9912C12.0303 14.011 11.9325 14.0271 11.8594 14.0381C11.7849 14.0493 11.7408 14.0546 11.7275 14.0547C11.7199 14.0547 11.6946 14.0491 11.6494 14.0342C11.6072 14.0202 11.5532 13.9994 11.4912 13.9736C11.3671 13.9219 11.2121 13.8502 11.0576 13.7705C10.9016 13.6901 10.7545 13.617 10.6426 13.5645C10.5866 13.5382 10.5383 13.5169 10.5029 13.502C10.4855 13.4946 10.47 13.4887 10.458 13.4844C10.4522 13.4823 10.4466 13.48 10.4414 13.4785L10.4189 13.4756C10.4047 13.4756 10.3893 13.4781 10.375 13.4863C10.3606 13.4946 10.3498 13.5068 10.3428 13.5195C10.3299 13.5432 10.3279 13.5711 10.3291 13.5947C10.3316 13.6435 10.3494 13.7084 10.377 13.7832C10.433 13.9354 10.5376 14.1486 10.6787 14.3945C11.8795 16.484 12.4248 18.0311 12.4248 19.3115C12.4226 19.8192 12.3563 20.2077 12.2041 20.5332C12.0522 20.8581 11.8118 21.125 11.4541 21.3857L11.334 21.4746L11.29 21.5068L11.3223 21.5508L11.7139 22.0762V22.0771C12.6623 23.3315 13.1548 24.5133 13.1592 25.502C13.1592 25.7236 13.1569 25.8395 13.1387 25.9346C13.1208 26.0277 13.0865 26.1031 13.0176 26.2432C12.9394 26.4033 12.8577 26.5194 12.7549 26.6113C12.6777 26.6803 12.5873 26.7374 12.4746 26.7891L12.3535 26.8389C12.2414 26.8827 12.053 26.9143 11.8467 26.9258C11.6415 26.9372 11.4246 26.9286 11.2568 26.8984H11.2559C11.2007 26.8894 11.1492 26.8841 11.1104 26.8848C11.0917 26.8851 11.0722 26.8868 11.0557 26.8916C11.0476 26.894 11.0359 26.8987 11.0254 26.9072C11.0195 26.912 11.0133 26.9186 11.0088 26.9268L11.001 26.957L11.0107 26.9893C11.0141 26.9951 11.018 27.0005 11.0215 27.0049C11.0285 27.0137 11.0375 27.024 11.0479 27.0342C11.0688 27.0549 11.0987 27.0806 11.1338 27.1104C11.2044 27.1703 11.3012 27.2471 11.4063 27.3252C11.6184 27.4808 11.8834 27.7005 11.9961 27.8174V27.8184C12.812 28.6471 12.8084 30.1076 11.9873 30.9502C11.5395 31.4077 10.9783 31.6461 10.3438 31.6504C9.57308 31.6502 8.94797 31.2973 8.36328 30.5195L8.3623 30.5186L8.2373 30.3633C8.22038 30.3435 8.20421 30.3267 8.19141 30.3145C8.18535 30.3087 8.17842 30.3019 8.1709 30.2969C8.16722 30.2944 8.16083 30.2907 8.15332 30.2881C8.14673 30.2859 8.13004 30.2813 8.11133 30.2891L8.10742 30.291C8.10023 30.2947 8.09493 30.2987 8.09375 30.2998C8.09169 30.3017 8.09007 30.3043 8.08887 30.3057C8.08649 30.3083 8.08426 30.3116 8.08203 30.3145C8.07736 30.3203 8.07111 30.3278 8.06445 30.3369C8.05086 30.3555 8.03251 30.3818 8.01074 30.4131L7.84668 30.6523C7.51072 31.1574 7.12972 31.4348 6.54492 31.6094C6.42776 31.6433 6.21217 31.6751 6.00293 31.6934C5.89885 31.7024 5.79775 31.7081 5.71289 31.709C5.62623 31.7098 5.56125 31.7056 5.52734 31.6973L5.52441 31.6963L5.19141 31.6299H5.19238C4.16668 31.4259 3.3899 30.4926 3.33301 29.4297L3.33105 29.2158L3.34375 28.8418L3.3457 28.7812L3.28516 28.7852L2.90723 28.8115C1.91019 28.885 1.11824 28.51 0.676758 27.7666L0.592773 27.6133C0.36497 27.1577 0.282807 26.8062 0.287109 26.2803C0.291458 25.3835 0.605419 24.6267 1.32422 23.8018C1.40477 23.7102 1.47835 23.6238 1.53223 23.5586C1.55908 23.5261 1.581 23.4982 1.59668 23.4775C1.60431 23.4675 1.61128 23.4586 1.61621 23.4512C1.61862 23.4475 1.62178 23.4428 1.62402 23.4385C1.62512 23.4364 1.62662 23.4332 1.62793 23.4297C1.62892 23.427 1.63181 23.4192 1.63184 23.4092C1.63184 23.3984 1.62873 23.3899 1.62695 23.3857C1.62499 23.3812 1.62271 23.3774 1.62109 23.375C1.61794 23.3703 1.6141 23.3663 1.61133 23.3633C1.60556 23.357 1.59763 23.3505 1.58984 23.3438C1.5739 23.3299 1.55174 23.3118 1.52539 23.292L1.32129 23.1504C0.801985 22.8099 0.338415 22.1924 0.146484 21.5898C0.0651756 21.3278 0.051303 21.1957 0.0556641 20.583L0.0585938 20.1787C0.0614517 20.0734 0.0669964 19.9922 0.0761719 19.9199C0.094276 19.7776 0.127793 19.6676 0.194336 19.4658C0.515928 18.5021 1.14947 17.7234 2.04297 17.1875L2.22461 17.084C2.38341 16.9965 2.60345 16.8953 2.7207 16.8516V16.8506C2.77872 16.8281 2.83222 16.8072 2.87109 16.79C2.89021 16.7816 2.90734 16.7735 2.91992 16.7666C2.92598 16.7633 2.93346 16.7594 2.93945 16.7549C2.94232 16.7527 2.94682 16.7483 2.95117 16.7432C2.95438 16.7393 2.96479 16.7261 2.96484 16.7061C2.96484 16.6983 2.9633 16.6919 2.96289 16.6904C2.96229 16.6882 2.96146 16.6861 2.96094 16.6846C2.95986 16.6815 2.95833 16.6779 2.95703 16.6748C2.95427 16.6683 2.94992 16.6593 2.94531 16.6494C2.93605 16.6296 2.92333 16.6019 2.90723 16.5693L2.78027 16.3203C2.53082 15.8299 2.45835 15.505 2.48828 15V14.999C2.52359 14.3123 2.7827 13.7681 3.36719 13.1836C3.9797 12.5711 4.6178 12.2807 5.65332 12.1484L5.6543 12.1494C5.76603 12.1363 5.86805 12.1226 5.94336 12.1113C5.98075 12.1057 6.01228 12.1001 6.03516 12.0957C6.04624 12.0936 6.05657 12.0919 6.06445 12.0898C6.06822 12.0889 6.07303 12.0874 6.07715 12.0859C6.07925 12.0852 6.08274 12.0837 6.08594 12.082C6.08842 12.0808 6.09449 12.0773 6.10059 12.0713L6.09863 12.0693C6.10872 12.0596 6.11464 12.0502 6.11621 12.0439C6.11827 12.0354 6.11845 12.0275 6.11816 12.0234C6.11754 12.015 6.11499 12.0061 6.11328 12C6.10961 11.987 6.10373 11.9704 6.09668 11.9531C6.08221 11.9176 6.06091 11.8709 6.03613 11.8213C5.98903 11.7271 5.89285 11.4725 5.83105 11.2568L5.83008 11.2559L5.76758 11.0293C5.75164 10.9613 5.73976 10.8967 5.73145 10.8252C5.71467 10.6807 5.71019 10.5055 5.70801 10.2119C5.70582 9.92061 5.70809 9.7467 5.72168 9.60938C5.7284 9.54153 5.73762 9.48217 5.75098 9.42188L5.80371 9.22754C6.00081 8.60518 6.29393 8.15985 6.74414 7.78027C7.29796 7.31751 7.92786 7.09809 8.83496 7.05371L8.83398 7.05273L9.39063 7.02734L9.44434 7.02539L9.44238 6.97168L9.4248 6.24609H9.42578C9.41706 5.79305 9.42902 5.47336 9.47754 5.19727C9.52588 4.92232 9.61083 4.6885 9.74902 4.40723C10.0563 3.78889 10.4829 3.31693 11.0361 2.98535L11.2813 2.85156C11.7322 2.63205 12.055 2.54976 12.5957 2.51953C13.0916 2.48827 13.5128 2.54007 13.9961 2.69434L14.3291 2.80176L14.3779 2.81738L14.3965 2.76953L14.4678 2.58789C14.5767 2.31611 14.7696 2.00539 14.9961 1.72168C15.166 1.50889 15.3532 1.31273 15.5361 1.16016L15.7168 1.02344C17.1284 0.0674251 18.8325 0.17594 20.1719 1.31348C20.2507 1.38069 20.3265 1.44214 20.3848 1.48633C20.4135 1.5081 20.4386 1.52612 20.458 1.53906C20.4677 1.5455 20.4774 1.55135 20.4854 1.55566C20.4892 1.55775 20.4934 1.56063 20.498 1.5625C20.5012 1.56376 20.5113 1.56738 20.5234 1.56738C20.5381 1.56733 20.5489 1.56129 20.5537 1.55859C20.5595 1.55535 20.5648 1.55183 20.5684 1.54883C20.5754 1.54282 20.5825 1.53567 20.5889 1.52832C20.602 1.51313 20.6171 1.49182 20.6338 1.46777C20.6673 1.41937 20.7085 1.35337 20.749 1.28125C20.9469 0.92758 21.2953 0.583263 21.6553 0.37793L21.8105 0.298828C22.1978 0.120194 22.5291 0.0546875 23.0342 0.0546875Z" fill="var(--fill-0, white)"/>
<path d="M23.0342 0.0546875C23.706 0.0547567 24.2775 0.219304 24.7754 0.552734L24.9844 0.706055C25.1425 0.833858 25.3379 1.0399 25.5186 1.26367C25.6992 1.48742 25.8626 1.7253 25.958 1.91602V1.91699C26.0213 2.04137 26.0663 2.12197 26.1074 2.16699C26.1293 2.1909 26.1545 2.21046 26.1855 2.21777C26.2149 2.22456 26.2419 2.21776 26.2656 2.20996L26.2666 2.21094C26.8152 2.05123 27.0509 2.01367 27.4629 2.01367C27.7641 2.01369 27.9697 2.02704 28.165 2.07129C28.3603 2.11555 28.5482 2.19104 28.8135 2.31934C29.0065 2.41259 29.1267 2.47612 29.2344 2.55371C29.342 2.63123 29.4395 2.72397 29.5859 2.87695C30.1766 3.49771 30.4231 4.21661 30.3184 5.00879C30.3054 5.11001 30.289 5.21589 30.2725 5.30371C30.2554 5.39407 30.2392 5.45901 30.2285 5.4834L30.2275 5.4873C30.2161 5.51996 30.2059 5.55357 30.2002 5.58105C30.1974 5.59449 30.1958 5.60868 30.1953 5.62109C30.1951 5.62717 30.1947 5.63537 30.1963 5.64355C30.1976 5.65027 30.2018 5.66589 30.2158 5.67871V5.67969L30.2227 5.68359C30.2314 5.68944 30.2418 5.69295 30.2461 5.69434C30.2527 5.69644 30.2609 5.69897 30.2695 5.70117C30.2868 5.70557 30.3096 5.71045 30.3359 5.71582C30.3892 5.72667 30.4596 5.73895 30.5342 5.75C31.4473 5.8989 32.3072 6.3873 32.8545 7.0625C33.416 7.75596 33.7791 8.63463 33.8398 9.41211L33.8477 9.56641L33.8545 9.89648L33.5 9.96484H33.499C33.281 10.0095 32.4414 10.1644 31.6309 10.3164C30.8254 10.4672 29.2809 10.7565 28.2031 10.9609C27.1266 11.1653 24.6337 11.6374 22.6621 12.0068C20.6904 12.3763 18.6198 12.7679 18.0547 12.875L15.585 13.3428C14.7886 13.4935 13.6223 13.7122 12.9902 13.8369C12.6768 13.897 12.3761 13.9517 12.1455 13.9912C12.0303 14.011 11.9325 14.0271 11.8594 14.0381C11.7849 14.0493 11.7408 14.0546 11.7275 14.0547C11.7199 14.0547 11.6946 14.0491 11.6494 14.0342C11.6072 14.0202 11.5532 13.9994 11.4912 13.9736C11.3671 13.9219 11.2121 13.8502 11.0576 13.7705C10.9016 13.6901 10.7545 13.617 10.6426 13.5645C10.5866 13.5382 10.5383 13.5169 10.5029 13.502C10.4855 13.4946 10.47 13.4887 10.458 13.4844C10.4522 13.4823 10.4466 13.48 10.4414 13.4785L10.4189 13.4756C10.4047 13.4756 10.3893 13.4781 10.375 13.4863C10.3606 13.4946 10.3498 13.5068 10.3428 13.5195C10.3299 13.5432 10.3279 13.5711 10.3291 13.5947C10.3316 13.6435 10.3494 13.7084 10.377 13.7832C10.433 13.9354 10.5376 14.1486 10.6787 14.3945C11.8795 16.484 12.4248 18.0311 12.4248 19.3115C12.4226 19.8192 12.3563 20.2077 12.2041 20.5332C12.0522 20.8581 11.8118 21.125 11.4541 21.3857L11.334 21.4746L11.29 21.5068L11.3223 21.5508L11.7139 22.0762V22.0771C12.6623 23.3315 13.1548 24.5133 13.1592 25.502C13.1592 25.7236 13.1569 25.8395 13.1387 25.9346C13.1208 26.0277 13.0865 26.1031 13.0176 26.2432C12.9394 26.4033 12.8577 26.5194 12.7549 26.6113C12.6777 26.6803 12.5873 26.7374 12.4746 26.7891L12.3535 26.8389C12.2414 26.8827 12.053 26.9143 11.8467 26.9258C11.6415 26.9372 11.4246 26.9286 11.2568 26.8984H11.2559C11.2007 26.8894 11.1492 26.8841 11.1104 26.8848C11.0917 26.8851 11.0722 26.8868 11.0557 26.8916C11.0476 26.894 11.0359 26.8987 11.0254 26.9072C11.0195 26.912 11.0133 26.9186 11.0088 26.9268L11.001 26.957L11.0107 26.9893C11.0141 26.9951 11.018 27.0005 11.0215 27.0049C11.0285 27.0137 11.0375 27.024 11.0479 27.0342C11.0688 27.0549 11.0987 27.0806 11.1338 27.1104C11.2044 27.1703 11.3012 27.2471 11.4063 27.3252C11.6184 27.4808 11.8834 27.7005 11.9961 27.8174V27.8184C12.812 28.6471 12.8084 30.1076 11.9873 30.9502C11.5395 31.4077 10.9783 31.6461 10.3438 31.6504C9.57308 31.6502 8.94797 31.2973 8.36328 30.5195L8.3623 30.5186L8.2373 30.3633C8.22038 30.3435 8.20421 30.3267 8.19141 30.3145C8.18535 30.3087 8.17842 30.3019 8.1709 30.2969C8.16722 30.2944 8.16083 30.2907 8.15332 30.2881C8.14673 30.2859 8.13004 30.2813 8.11133 30.2891L8.10742 30.291C8.10023 30.2947 8.09493 30.2987 8.09375 30.2998C8.09169 30.3017 8.09007 30.3043 8.08887 30.3057C8.08649 30.3083 8.08426 30.3116 8.08203 30.3145C8.07736 30.3203 8.07111 30.3278 8.06445 30.3369C8.05086 30.3555 8.03251 30.3818 8.01074 30.4131L7.84668 30.6523C7.51072 31.1574 7.12972 31.4348 6.54492 31.6094C6.42776 31.6433 6.21217 31.6751 6.00293 31.6934C5.89885 31.7024 5.79775 31.7081 5.71289 31.709C5.62623 31.7098 5.56125 31.7056 5.52734 31.6973L5.52441 31.6963L5.19141 31.6299H5.19238C4.16668 31.4259 3.3899 30.4926 3.33301 29.4297L3.33105 29.2158L3.34375 28.8418L3.3457 28.7812L3.28516 28.7852L2.90723 28.8115C1.91019 28.885 1.11824 28.51 0.676758 27.7666L0.592773 27.6133C0.36497 27.1577 0.282807 26.8062 0.287109 26.2803C0.291458 25.3835 0.605419 24.6267 1.32422 23.8018C1.40477 23.7102 1.47835 23.6238 1.53223 23.5586C1.55908 23.5261 1.581 23.4982 1.59668 23.4775C1.60431 23.4675 1.61128 23.4586 1.61621 23.4512C1.61862 23.4475 1.62178 23.4428 1.62402 23.4385C1.62512 23.4364 1.62662 23.4332 1.62793 23.4297C1.62892 23.427 1.63181 23.4192 1.63184 23.4092C1.63184 23.3984 1.62873 23.3899 1.62695 23.3857C1.62499 23.3812 1.62271 23.3774 1.62109 23.375C1.61794 23.3703 1.6141 23.3663 1.61133 23.3633C1.60556 23.357 1.59763 23.3505 1.58984 23.3438C1.5739 23.3299 1.55174 23.3118 1.52539 23.292L1.32129 23.1504C0.801985 22.8099 0.338415 22.1924 0.146484 21.5898C0.0651756 21.3278 0.051303 21.1957 0.0556641 20.583L0.0585938 20.1787C0.0614517 20.0734 0.0669964 19.9922 0.0761719 19.9199C0.094276 19.7776 0.127793 19.6676 0.194336 19.4658C0.515928 18.5021 1.14947 17.7234 2.04297 17.1875L2.22461 17.084C2.38341 16.9965 2.60345 16.8953 2.7207 16.8516V16.8506C2.77872 16.8281 2.83222 16.8072 2.87109 16.79C2.89021 16.7816 2.90734 16.7735 2.91992 16.7666C2.92598 16.7633 2.93346 16.7594 2.93945 16.7549C2.94232 16.7527 2.94682 16.7483 2.95117 16.7432C2.95438 16.7393 2.96479 16.7261 2.96484 16.7061C2.96484 16.6983 2.9633 16.6919 2.96289 16.6904C2.96229 16.6882 2.96146 16.6861 2.96094 16.6846C2.95986 16.6815 2.95833 16.6779 2.95703 16.6748C2.95427 16.6683 2.94992 16.6593 2.94531 16.6494C2.93605 16.6296 2.92333 16.6019 2.90723 16.5693L2.78027 16.3203C2.53082 15.8299 2.45835 15.505 2.48828 15V14.999C2.52359 14.3123 2.7827 13.7681 3.36719 13.1836C3.9797 12.5711 4.6178 12.2807 5.65332 12.1484L5.6543 12.1494C5.76603 12.1363 5.86805 12.1226 5.94336 12.1113C5.98075 12.1057 6.01228 12.1001 6.03516 12.0957C6.04624 12.0936 6.05657 12.0919 6.06445 12.0898C6.06822 12.0889 6.07303 12.0874 6.07715 12.0859C6.07925 12.0852 6.08274 12.0837 6.08594 12.082C6.08842 12.0808 6.09449 12.0773 6.10059 12.0713L6.09863 12.0693C6.10872 12.0596 6.11464 12.0502 6.11621 12.0439C6.11827 12.0354 6.11845 12.0275 6.11816 12.0234C6.11754 12.015 6.11499 12.0061 6.11328 12C6.10961 11.987 6.10373 11.9704 6.09668 11.9531C6.08221 11.9176 6.06091 11.8709 6.03613 11.8213C5.98903 11.7271 5.89285 11.4725 5.83105 11.2568L5.83008 11.2559L5.76758 11.0293C5.75164 10.9613 5.73976 10.8967 5.73145 10.8252C5.71467 10.6807 5.71019 10.5055 5.70801 10.2119C5.70582 9.92061 5.70809 9.7467 5.72168 9.60938C5.7284 9.54153 5.73762 9.48217 5.75098 9.42188L5.80371 9.22754C6.00081 8.60518 6.29393 8.15985 6.74414 7.78027C7.29796 7.31751 7.92786 7.09809 8.83496 7.05371L8.83398 7.05273L9.39063 7.02734L9.44434 7.02539L9.44238 6.97168L9.4248 6.24609H9.42578C9.41706 5.79305 9.42902 5.47336 9.47754 5.19727C9.52588 4.92232 9.61083 4.6885 9.74902 4.40723C10.0563 3.78889 10.4829 3.31693 11.0361 2.98535L11.2813 2.85156C11.7322 2.63205 12.055 2.54976 12.5957 2.51953C13.0916 2.48827 13.5128 2.54007 13.9961 2.69434L14.3291 2.80176L14.3779 2.81738L14.3965 2.76953L14.4678 2.58789C14.5767 2.31611 14.7696 2.00539 14.9961 1.72168C15.166 1.50889 15.3532 1.31273 15.5361 1.16016L15.7168 1.02344C17.1284 0.0674251 18.8325 0.17594 20.1719 1.31348C20.2507 1.38069 20.3265 1.44214 20.3848 1.48633C20.4135 1.5081 20.4386 1.52612 20.458 1.53906C20.4677 1.5455 20.4774 1.55135 20.4854 1.55566C20.4892 1.55775 20.4934 1.56063 20.498 1.5625C20.5012 1.56376 20.5113 1.56738 20.5234 1.56738C20.5381 1.56733 20.5489 1.56129 20.5537 1.55859C20.5595 1.55535 20.5648 1.55183 20.5684 1.54883C20.5754 1.54282 20.5825 1.53567 20.5889 1.52832C20.602 1.51313 20.6171 1.49182 20.6338 1.46777C20.6673 1.41937 20.7085 1.35337 20.749 1.28125C20.9469 0.92758 21.2953 0.583263 21.6553 0.37793L21.8105 0.298828C22.1978 0.120194 22.5291 0.0546875 23.0342 0.0546875Z" stroke="var(--stroke-0, #F0FDE6)" style="mix-blend-mode:soft-light" stroke-width="0.109296"/>
</g>
<g id="Vector_3">
<path d="M35.1363 10.0451C35.3792 10.0681 35.6511 10.1048 35.7779 10.1369C36.4065 10.2989 37.0027 10.6877 37.4273 11.2219C37.9544 11.8762 38.1791 12.5313 38.1363 13.259C38.1233 13.4926 38.0744 13.803 38.023 13.9573V13.9582C37.9985 14.0382 37.975 14.1151 37.9576 14.1731C37.949 14.2018 37.9412 14.2264 37.9361 14.2453C37.9335 14.2548 37.9318 14.2637 37.9302 14.2707L37.9263 14.2951L37.9341 14.3235C37.9381 14.3307 37.9425 14.3356 37.9449 14.3381C37.9512 14.3446 37.9579 14.3503 37.9634 14.3537C37.9749 14.3609 37.9898 14.3674 38.0045 14.3733C38.0343 14.3852 38.0737 14.3972 38.1158 14.4065C38.4078 14.4699 38.7363 14.6858 39.0504 15.0149C39.3633 15.3428 39.6577 15.7785 39.8843 16.2717C40.5924 17.8192 40.631 19.3206 40.0084 20.3498C39.9331 20.4698 39.7969 20.6343 39.649 20.7883C39.5009 20.9425 39.3449 21.0822 39.232 21.1565L39.108 21.2365L39.0543 21.2707L39.0972 21.3186L39.3238 21.5725C39.9502 22.2743 40.199 22.9889 40.1334 23.9182C39.993 25.9569 38.5418 27.3614 36.5923 27.3615C36.4981 27.3615 36.4127 27.3573 36.3521 27.3508C36.3388 27.3494 36.3272 27.3465 36.317 27.3449C36.3183 27.3416 36.3203 27.3379 36.3218 27.3342C36.3371 27.2976 36.3597 27.2471 36.3873 27.1858L36.6041 26.7229V26.7219C37.4838 24.8768 37.8747 23.0288 37.7261 21.3352C37.5648 19.4363 37.0776 18.1626 36.1382 17.2287L35.8658 16.9602L35.9478 16.635C36.0656 16.1459 36.1 15.236 36.0377 14.2815C35.9442 12.8575 35.8361 11.909 35.6666 11.2668C35.4966 10.6231 35.2627 10.2778 34.9117 10.0715H34.9107C34.884 10.056 34.8595 10.0392 34.8365 10.0246C34.9163 10.0274 35.0223 10.0344 35.1363 10.0451Z" fill="var(--fill-0, white)"/>
<path d="M35.1363 10.0451C35.3792 10.0681 35.6511 10.1048 35.7779 10.1369C36.4065 10.2989 37.0027 10.6877 37.4273 11.2219C37.9544 11.8762 38.1791 12.5313 38.1363 13.259C38.1233 13.4926 38.0744 13.803 38.023 13.9573V13.9582C37.9985 14.0382 37.975 14.1151 37.9576 14.1731C37.949 14.2018 37.9412 14.2264 37.9361 14.2453C37.9335 14.2548 37.9318 14.2637 37.9302 14.2707L37.9263 14.2951L37.9341 14.3235C37.9381 14.3307 37.9425 14.3356 37.9449 14.3381C37.9512 14.3446 37.9579 14.3503 37.9634 14.3537C37.9749 14.3609 37.9898 14.3674 38.0045 14.3733C38.0343 14.3852 38.0737 14.3972 38.1158 14.4065C38.4078 14.4699 38.7363 14.6858 39.0504 15.0149C39.3633 15.3428 39.6577 15.7785 39.8843 16.2717C40.5924 17.8192 40.631 19.3206 40.0084 20.3498C39.9331 20.4698 39.7969 20.6343 39.649 20.7883C39.5009 20.9425 39.3449 21.0822 39.232 21.1565L39.108 21.2365L39.0543 21.2707L39.0972 21.3186L39.3238 21.5725C39.9502 22.2743 40.199 22.9889 40.1334 23.9182C39.993 25.9569 38.5418 27.3614 36.5923 27.3615C36.4981 27.3615 36.4127 27.3573 36.3521 27.3508C36.3388 27.3494 36.3272 27.3465 36.317 27.3449C36.3183 27.3416 36.3203 27.3379 36.3218 27.3342C36.3371 27.2976 36.3597 27.2471 36.3873 27.1858L36.6041 26.7229V26.7219C37.4838 24.8768 37.8747 23.0288 37.7261 21.3352C37.5648 19.4363 37.0776 18.1626 36.1382 17.2287L35.8658 16.9602L35.9478 16.635C36.0656 16.1459 36.1 15.236 36.0377 14.2815C35.9442 12.8575 35.8361 11.909 35.6666 11.2668C35.4966 10.6231 35.2627 10.2778 34.9117 10.0715H34.9107C34.884 10.056 34.8595 10.0392 34.8365 10.0246C34.9163 10.0274 35.0223 10.0344 35.1363 10.0451Z" stroke="var(--stroke-0, #F0FDE6)" style="mix-blend-mode:soft-light" stroke-width="0.109296"/>
</g>
<g id="Vector_4">
<path d="M21.7823 13.4692C21.8455 13.472 21.8774 13.4839 21.9132 13.5073C21.9547 13.535 21.9764 13.5602 21.9864 13.5883C21.9966 13.6171 21.9973 13.6584 21.9786 13.725C21.9402 13.8614 21.8279 14.0735 21.6153 14.4311C20.926 15.5924 19.8844 17.2953 18.9815 18.7504C18.53 19.478 18.1129 20.1443 17.7921 20.6489C17.4702 21.1552 17.247 21.4952 17.1817 21.5766V21.5776C17.125 21.6492 17.0818 21.6871 17.0508 21.7016C17.0365 21.7082 17.0272 21.7083 17.0225 21.7075C17.0181 21.7066 17.011 21.7035 17.002 21.6938H17.003L16.9981 21.6899C16.9965 21.6868 16.9944 21.6815 16.9923 21.6743C16.988 21.6598 16.9854 21.6415 16.9854 21.6245C16.9854 21.6245 16.985 21.6231 16.9854 21.6206C16.9859 21.6175 16.9871 21.613 16.9883 21.6079C16.9909 21.5971 16.9954 21.5825 17.001 21.5649C17.0123 21.5298 17.0293 21.4827 17.0518 21.4252C17.0968 21.3103 17.1621 21.1538 17.2462 20.9633C17.4143 20.582 17.6541 20.0648 17.9385 19.4663C18.5074 18.269 19.2558 16.7483 19.9747 15.3471C20.331 14.6552 20.5636 14.2136 20.7198 13.9399C20.7978 13.8032 20.8558 13.7098 20.9005 13.6489C20.9228 13.6184 20.9416 13.5966 20.9561 13.5825C20.9705 13.5686 20.9791 13.5642 20.9825 13.5629L20.9815 13.562C20.9984 13.5568 21.0555 13.5459 21.1397 13.5327C21.2239 13.5194 21.3312 13.5054 21.4415 13.4946H21.4424C21.6146 13.4743 21.7147 13.4662 21.7823 13.4692Z" fill="var(--fill-0, white)"/>
<path d="M21.7823 13.4692C21.8455 13.472 21.8774 13.4839 21.9132 13.5073C21.9547 13.535 21.9764 13.5602 21.9864 13.5883C21.9966 13.6171 21.9973 13.6584 21.9786 13.725C21.9402 13.8614 21.8279 14.0735 21.6153 14.4311C20.926 15.5924 19.8844 17.2953 18.9815 18.7504C18.53 19.478 18.1129 20.1443 17.7921 20.6489C17.4702 21.1552 17.247 21.4952 17.1817 21.5766V21.5776C17.125 21.6492 17.0818 21.6871 17.0508 21.7016C17.0365 21.7082 17.0272 21.7083 17.0225 21.7075C17.0181 21.7066 17.011 21.7035 17.002 21.6938H17.003L16.9981 21.6899C16.9965 21.6868 16.9944 21.6815 16.9923 21.6743C16.988 21.6598 16.9854 21.6415 16.9854 21.6245C16.9854 21.6245 16.985 21.6231 16.9854 21.6206C16.9859 21.6175 16.9871 21.613 16.9883 21.6079C16.9909 21.5971 16.9954 21.5825 17.001 21.5649C17.0123 21.5298 17.0293 21.4827 17.0518 21.4252C17.0968 21.3103 17.1621 21.1538 17.2462 20.9633C17.4143 20.582 17.6541 20.0648 17.9385 19.4663C18.5074 18.269 19.2558 16.7483 19.9747 15.3471C20.331 14.6552 20.5636 14.2136 20.7198 13.9399C20.7978 13.8032 20.8558 13.7098 20.9005 13.6489C20.9228 13.6184 20.9416 13.5966 20.9561 13.5825C20.9705 13.5686 20.9791 13.5642 20.9825 13.5629L20.9815 13.562C20.9984 13.5568 21.0555 13.5459 21.1397 13.5327C21.2239 13.5194 21.3312 13.5054 21.4415 13.4946H21.4424C21.6146 13.4743 21.7147 13.4662 21.7823 13.4692Z" stroke="var(--stroke-0, #F0FDE6)" style="mix-blend-mode:soft-light" stroke-width="0.109296"/>
</g>
<g id="Vector_5">
<path d="M19.6737 13.9045C19.7234 13.9081 19.757 13.9168 19.7782 13.9279C19.7974 13.9381 19.8066 13.9505 19.8114 13.965C19.8169 13.9818 19.8185 14.0074 19.8104 14.0461C19.7939 14.1248 19.7433 14.2356 19.661 14.3869C18.6644 16.1976 17.9799 17.3898 17.5174 18.1272C17.2354 18.5761 16.7565 19.3014 16.3348 19.926C16.124 20.2382 15.9271 20.5248 15.7772 20.7395C15.7023 20.8468 15.6392 20.9362 15.5917 21.0012C15.5679 21.0336 15.5482 21.06 15.5331 21.0793C15.5255 21.089 15.5194 21.097 15.5145 21.1027C15.5121 21.1056 15.5102 21.1079 15.5086 21.1096L15.5067 21.1105C15.4663 21.146 15.3949 21.1691 15.3153 21.1711C15.2358 21.1731 15.1613 21.1542 15.117 21.1213L15.1043 21.1115C15.079 21.0916 15.0763 21.0836 15.0751 21.0734C15.0739 21.0638 15.0735 21.0489 15.078 21.0236C15.0825 20.9981 15.0905 20.9654 15.1014 20.9221C15.1069 20.9005 15.1268 20.8453 15.16 20.7609C15.1928 20.6778 15.2371 20.5687 15.2899 20.4426C15.3954 20.1904 15.5352 19.8686 15.6815 19.5373C16.5203 17.639 17.1027 16.3417 17.4969 15.5012C17.6941 15.0808 17.8441 14.7751 17.9549 14.5656C18.0103 14.4609 18.0553 14.3804 18.0917 14.3225C18.1286 14.2636 18.1533 14.2318 18.1678 14.2189L18.1688 14.2199C18.2043 14.1897 18.2651 14.1582 18.3768 14.1242C18.4323 14.1074 18.4991 14.0909 18.579 14.0725L18.8602 14.0129C19.127 13.9596 19.3329 13.9238 19.4862 13.9094C19.5626 13.9022 19.6245 13.9009 19.6737 13.9045Z" fill="var(--fill-0, white)"/>
<path d="M19.6737 13.9045C19.7234 13.9081 19.757 13.9168 19.7782 13.9279C19.7974 13.9381 19.8066 13.9505 19.8114 13.965C19.8169 13.9818 19.8185 14.0074 19.8104 14.0461C19.7939 14.1248 19.7433 14.2356 19.661 14.3869C18.6644 16.1976 17.9799 17.3898 17.5174 18.1272C17.2354 18.5761 16.7565 19.3014 16.3348 19.926C16.124 20.2382 15.9271 20.5248 15.7772 20.7395C15.7023 20.8468 15.6392 20.9362 15.5917 21.0012C15.5679 21.0336 15.5482 21.06 15.5331 21.0793C15.5255 21.089 15.5194 21.097 15.5145 21.1027C15.5121 21.1056 15.5102 21.1079 15.5086 21.1096L15.5067 21.1105C15.4663 21.146 15.3949 21.1691 15.3153 21.1711C15.2358 21.1731 15.1613 21.1542 15.117 21.1213L15.1043 21.1115C15.079 21.0916 15.0763 21.0836 15.0751 21.0734C15.0739 21.0638 15.0735 21.0489 15.078 21.0236C15.0825 20.9981 15.0905 20.9654 15.1014 20.9221C15.1069 20.9005 15.1268 20.8453 15.16 20.7609C15.1928 20.6778 15.2371 20.5687 15.2899 20.4426C15.3954 20.1904 15.5352 19.8686 15.6815 19.5373C16.5203 17.639 17.1027 16.3417 17.4969 15.5012C17.6941 15.0808 17.8441 14.7751 17.9549 14.5656C18.0103 14.4609 18.0553 14.3804 18.0917 14.3225C18.1286 14.2636 18.1533 14.2318 18.1678 14.2189L18.1688 14.2199C18.2043 14.1897 18.2651 14.1582 18.3768 14.1242C18.4323 14.1074 18.4991 14.0909 18.579 14.0725L18.8602 14.0129C19.127 13.9596 19.3329 13.9238 19.4862 13.9094C19.5626 13.9022 19.6245 13.9009 19.6737 13.9045Z" stroke="var(--stroke-0, #F0FDE6)" style="mix-blend-mode:soft-light" stroke-width="0.109296"/>
</g>
<g id="Vector_6">
<path d="M32.4922 11.0335C32.546 11.0383 32.5645 11.0513 32.5723 11.0609C32.5811 11.0717 32.5888 11.0918 32.5889 11.138C32.5889 11.1349 32.5883 11.1377 32.584 11.1517C32.5802 11.1638 32.5745 11.1806 32.5664 11.2015C32.5502 11.2432 32.5261 11.2998 32.4951 11.3694C32.4329 11.5093 32.3431 11.7002 32.2353 11.9241C32.0199 12.3719 31.7312 12.9529 31.4385 13.5306C31.1457 14.1083 30.8497 14.6831 30.6182 15.1175C30.5024 15.3347 30.4023 15.5161 30.3281 15.6458C30.291 15.7108 30.2603 15.7622 30.2373 15.7982C30.2257 15.8162 30.2168 15.8301 30.21 15.8392C30.2083 15.8414 30.2062 15.8426 30.2051 15.8441C30.1971 15.8473 30.1831 15.8526 30.1611 15.8577C30.1354 15.8637 30.1032 15.8697 30.0664 15.8753C29.9928 15.8864 29.9029 15.8963 29.8164 15.9027C29.73 15.909 29.6478 15.9119 29.5879 15.9105C29.5725 15.9101 29.559 15.9084 29.5478 15.9075C29.5492 15.903 29.5512 15.898 29.5527 15.8929C29.5635 15.8573 29.5791 15.8082 29.5996 15.7474C29.6408 15.6253 29.7007 15.4567 29.7725 15.2571C29.9158 14.8583 30.1087 14.3348 30.3076 13.804C30.5067 13.2729 30.7112 12.734 30.8779 12.306C31.0454 11.8761 31.1737 11.5618 31.2187 11.4749V11.4739C31.2818 11.3479 31.3309 11.2816 31.4072 11.2347C31.447 11.2102 31.4954 11.1898 31.5596 11.1712L31.8066 11.1165C31.9912 11.0843 32.1355 11.0613 32.248 11.0472C32.3611 11.033 32.4388 11.0288 32.4922 11.0335Z" fill="var(--fill-0, white)"/>
<path d="M32.4922 11.0335C32.546 11.0383 32.5645 11.0513 32.5723 11.0609C32.5811 11.0717 32.5888 11.0918 32.5889 11.138C32.5889 11.1349 32.5883 11.1377 32.584 11.1517C32.5802 11.1638 32.5745 11.1806 32.5664 11.2015C32.5502 11.2432 32.5261 11.2998 32.4951 11.3694C32.4329 11.5093 32.3431 11.7002 32.2353 11.9241C32.0199 12.3719 31.7312 12.9529 31.4385 13.5306C31.1457 14.1083 30.8497 14.6831 30.6182 15.1175C30.5024 15.3347 30.4023 15.5161 30.3281 15.6458C30.291 15.7108 30.2603 15.7622 30.2373 15.7982C30.2257 15.8162 30.2168 15.8301 30.21 15.8392C30.2083 15.8414 30.2062 15.8426 30.2051 15.8441C30.1971 15.8473 30.1831 15.8526 30.1611 15.8577C30.1354 15.8637 30.1032 15.8697 30.0664 15.8753C29.9928 15.8864 29.9029 15.8963 29.8164 15.9027C29.73 15.909 29.6478 15.9119 29.5879 15.9105C29.5725 15.9101 29.559 15.9084 29.5478 15.9075C29.5492 15.903 29.5512 15.898 29.5527 15.8929C29.5635 15.8573 29.5791 15.8082 29.5996 15.7474C29.6408 15.6253 29.7007 15.4567 29.7725 15.2571C29.9158 14.8583 30.1087 14.3348 30.3076 13.804C30.5067 13.2729 30.7112 12.734 30.8779 12.306C31.0454 11.8761 31.1737 11.5618 31.2187 11.4749V11.4739C31.2818 11.3479 31.3309 11.2816 31.4072 11.2347C31.447 11.2102 31.4954 11.1898 31.5596 11.1712L31.8066 11.1165C31.9912 11.0843 32.1355 11.0613 32.248 11.0472C32.3611 11.033 32.4388 11.0288 32.4922 11.0335Z" stroke="var(--stroke-0, #F0FDE6)" style="mix-blend-mode:soft-light" stroke-width="0.109296"/>
</g>
</g>
</svg>
